<svg width="268" height="50" viewBox="0 0 268 50" fill="none" xmlns="http://www.w3.org/2000/svg">
<g clip-path="url(#clip0_2_86)">
<path d="M134.624 0C134.624 0 132.826 2.24801 133.804 5.76549C133.804 5.76549 130.604 7.9606 128.779 12.4831C126.955 17.0055 126.452 18.6188 122.987 20.2585C119.523 21.8983 117.016 24.8752 115.397 28.1134C113.625 31.6573 108.838 32.0011 108.442 32.9267C108.045 33.8524 107.754 37.2641 107.754 39.0889C107.754 40.9138 107.727 43.7965 108.151 44.5635C108.151 44.5635 105.268 41.4956 105.109 35.5979C104.95 29.7002 110.977 10.49 134.624 0Z" fill="#6D5515"/>
<path d="M109.35 45.7537C109.35 45.7537 110.302 46.0356 110.161 45.0835C110.019 44.1314 109.773 42.4039 111.042 40.0411C112.312 37.6783 114.181 34.8929 119.329 30.5201C124.477 26.1473 131.46 21.8454 133.998 19.3768C136.537 16.9083 139.076 14.2286 141.474 10.9137C141.474 10.9137 149.444 14.8279 151.348 16.1328C151.348 16.1328 147.434 16.4502 144.401 20.2586C141.368 24.067 141.157 25.2307 138.618 25.8654C136.079 26.5001 135.656 26.9587 136.326 28.6513C136.996 30.344 138.406 31.1548 138.336 32.5655C138.265 33.9762 138.265 35.598 139.64 36.9732C141.015 38.3485 142.36 38.084 142.029 37.2774C141.699 36.4707 141.342 36.5104 141.289 35.4922C141.236 34.474 141.421 32.4111 141.329 31.3267C141.236 30.2424 141.593 28.3382 143.153 27.4919C144.714 26.6456 152.04 22.6124 153.64 21.6735C155.24 20.7346 158.652 19.0553 158.995 18.0238C159.339 16.9924 158.85 15.4452 157.237 13.2633C155.623 11.0814 152.899 7.9871 147.574 3.45723C147.574 3.45723 149.232 1.09497 149.726 0.266113C149.726 0.266113 158.4 2.85794 162.632 21.4768C166.863 40.0956 155.068 45.914 143.061 48.5587C131.054 51.2034 114.41 50.1439 109.35 45.7537Z" fill="#FCB700"/>
<path d="M112.647 34.7532C113.319 34.7532 113.863 34.2085 113.863 33.5366C113.863 32.8647 113.319 32.3201 112.647 32.3201C111.975 32.3201 111.43 32.8647 111.43 33.5366C111.43 34.2085 111.975 34.7532 112.647 34.7532Z" fill="#6D5515"/>
<path d="M127.351 22.7461C128.023 22.7461 128.568 22.2015 128.568 21.5296C128.568 20.8577 128.023 20.313 127.351 20.313C126.679 20.313 126.135 20.8577 126.135 21.5296C126.135 22.2015 126.679 22.7461 127.351 22.7461Z" fill="#6D5515"/>
<path d="M140.786 28.1944C141.458 28.1944 142.003 27.6497 142.003 26.9778C142.003 26.3059 141.458 25.7612 140.786 25.7612C140.115 25.7612 139.57 26.3059 139.57 26.9778C139.57 27.6497 140.115 28.1944 140.786 28.1944Z" fill="#6D5515"/>
<path d="M155.861 18.303C156.533 18.303 157.078 17.7583 157.078 17.0864C157.078 16.4145 156.533 15.8699 155.861 15.8699C155.189 15.8699 154.645 16.4145 154.645 17.0864C154.645 17.7583 155.189 18.303 155.861 18.303Z" fill="#6D5515"/>
</g>
<defs>
<clipPath id="clip0_2_86">
<rect width="58.5878" height="50" fill="white" transform="translate(105)"/>
</clipPath>
</defs>
</svg>
